<svg xmlns="http://www.w3.org/2000/svg" viewBox="0 0 900 675">
  <defs>
    <linearGradient id="sky" x1="0" x2="1" y1="0" y2="1"><stop stop-color="#ebd5a9"/><stop offset="1" stop-color="#b7bfa8"/></linearGradient>
    <pattern id="hex" width="52" height="45" patternUnits="userSpaceOnUse"><path d="m13 1 26 0 13 21.5L39 44H13L0 22.5z" fill="none" stroke="#d79419" stroke-width="2"/></pattern>
  </defs>
  <rect width="900" height="675" fill="url(#sky)"/>
  <circle cx="735" cy="118" r="76" fill="#f6ca61" opacity=".8"/>
  <path d="M0 430c160-95 300-28 431-45 167-22 273-145 469-69v359H0z" fill="#66705d"/>
  <path d="M0 505c165-75 279 2 441-34 172-38 290-104 459-23v227H0z" fill="#3e493a"/>
  <rect x="80" y="80" width="280" height="220" fill="url(#hex)" opacity=".4"/>
  <g transform="translate(380 130)">
    <circle cx="110" cy="92" r="64" fill="#c47d35"/>
    <path d="M42 77c8-75 125-99 148-12 7 26-4 69-15 90H55C45 134 38 104 42 77z" fill="#f1eadc" fill-opacity=".5" stroke="#f8f4e9" stroke-width="7"/>
    <path d="M48 57c24-59 112-68 142-7l-18 15c-33-30-76-33-113 3z" fill="#fbf7ed"/>
    <path d="M20 194c25-54 65-75 96-75s71 21 96 75l44 190H-24z" fill="#f0e4cc"/>
    <path d="M85 130c10 19 44 20 55 0" fill="none" stroke="#82502a" stroke-width="5"/>
    <path d="M35 199c62 39 112 39 164 0" fill="none" stroke="#d79419" stroke-width="18"/>
    <rect x="218" y="244" width="140" height="160" fill="#d6a137"/>
    <rect x="208" y="224" width="160" height="28" fill="#283126"/>
    <path d="M228 284h120M228 324h120M228 364h120" stroke="#8f5c0b" stroke-width="8"/>
  </g>
  <g fill="#283126">
    <ellipse cx="700" cy="260" rx="8" ry="5"/><ellipse cx="727" cy="238" rx="7" ry="4"/><ellipse cx="758" cy="273" rx="8" ry="5"/>
  </g>
</svg>
