<svg xmlns="http://www.w3.org/2000/svg" viewBox="0 0 800 600">
  <defs>
    <linearGradient id="bg" x1="0" x2="1" y1="0" y2="1"><stop stop-color="#f4e5c5"/><stop offset="1" stop-color="#e7c787"/></linearGradient>
    <linearGradient id="h" x1="0" x2="1"><stop stop-color="#b96608"/><stop offset=".55" stop-color="#edaa20"/><stop offset="1" stop-color="#9f5107"/></linearGradient>
  </defs>
  <rect width="800" height="600" fill="url(#bg)"/>
  <circle cx="665" cy="92" r="145" fill="none" stroke="#fff" stroke-opacity=".35" stroke-width="2"/>
  <path d="M0 500c180-55 280-12 416-8 134 4 245-69 384-34v142H0z" fill="#66705d" opacity=".18"/>
  <g transform="translate(240 70)">
    <rect x="70" y="34" width="180" height="48" rx="12" fill="#283126"/>
    <path d="M58 79h204l21 53v309c0 35-27 63-61 63H98c-34 0-61-28-61-63V132z" fill="#fff" fill-opacity=".7" stroke="#fff" stroke-width="5"/>
    <path d="M48 182h224v250c0 24-18 43-42 43H90c-24 0-42-19-42-43z" fill="url(#h)"/>
    <rect x="65" y="245" width="190" height="128" rx="5" fill="#fbf7ed"/>
    <path d="M160 267l28 16v32l-28 16-28-16v-32z" fill="none" stroke="#d79419" stroke-width="3"/>
    <text x="160" y="350" text-anchor="middle" font-family="Georgia,serif" font-size="28" fill="#283126">Baba's Bees</text>
    <text x="160" y="398" text-anchor="middle" font-family="Arial,sans-serif" font-size="15" letter-spacing="4" fill="#fbf7ed">PURE HONEY</text>
  </g>
</svg>
