<svg xmlns="http://www.w3.org/2000/svg" viewBox="0 0 800 600">
  <defs>
    <linearGradient id="bg" x1="0" x2="1" y1="1" y2="0"><stop stop-color="#efd59e"/><stop offset="1" stop-color="#f8eed9"/></linearGradient>
    <linearGradient id="h" x1="0" x2="1"><stop stop-color="#a35306"/><stop offset=".55" stop-color="#eda91f"/><stop offset="1" stop-color="#9e4e05"/></linearGradient>
    <pattern id="comb" width="42" height="36" patternUnits="userSpaceOnUse"><path d="m10.5 1 20 0 10 17-10 17h-20L.5 18z" fill="none" stroke="#f7c84a" stroke-width="3"/></pattern>
  </defs>
  <rect width="800" height="600" fill="url(#bg)"/>
  <rect x="500" y="0" width="300" height="230" fill="url(#comb)" opacity=".75"/>
  <path d="M0 520c140-70 295 10 410-19 150-38 229-102 390-35v134H0z" fill="#d79419" opacity=".2"/>
  <g transform="translate(245 72)">
    <rect x="55" y="20" width="190" height="47" rx="10" fill="#283126"/>
    <path d="M44 64h212l22 53v304c0 36-27 65-62 65H84c-35 0-62-29-62-65V117z" fill="#fff" fill-opacity=".72" stroke="#fff" stroke-width="5"/>
    <path d="M33 162h234v250c0 27-20 49-46 49H79c-26 0-46-22-46-49z" fill="url(#h)"/>
    <path d="M62 186h105l42 75-49 85H62z" fill="url(#comb)" stroke="#f3c044" stroke-width="3"/>
    <rect x="55" y="305" width="190" height="102" rx="5" fill="#fbf7ed"/>
    <text x="150" y="350" text-anchor="middle" font-family="Georgia,serif" font-size="27" fill="#283126">Baba's Bees</text>
    <text x="150" y="381" text-anchor="middle" font-family="Arial,sans-serif" font-size="11" letter-spacing="2.7" fill="#66705d">HONEY + HONEYCOMB</text>
  </g>
</svg>
